<?xml version="1.0" standalone="no"?>
<!DOCTYPE svg PUBLIC "-//W3C//DTD SVG 20010904//EN"
 "http://www.w3.org/TR/2001/REC-SVG-20010904/DTD/svg10.dtd">
<svg version="1.0" xmlns="http://www.w3.org/2000/svg"
 width="700.000000pt" height="700.000000pt" viewBox="0 0 700.000000 700.000000"
 preserveAspectRatio="xMidYMid meet">
<metadata>
Created by potrace 1.11, written by Peter Selinger 2001-2013
</metadata>
<g transform="translate(0.000000,700.000000) scale(0.100000,-0.100000)"
fill="#000000" stroke="none">
<path d="M3010 6989 c-941 -45 -1637 -250 -2090 -616 -97 -79 -260 -247 -333
-345 -288 -386 -467 -915 -541 -1603 -57 -526 -60 -1264 -6 -1795 123 -1207
529 -1902 1332 -2279 501 -236 1201 -351 2128 -351 1617 0 2531 343 3022 1132
143 229 266 550 342 887 181 799 181 2150 1 2956 -94 424 -246 777 -452 1053
-73 98 -236 266 -333 345 -321 260 -777 443 -1330 536 -464 78 -1130 109
-1740 80z m-329 -3494 c275 -720 502 -1318 505 -1328 5 -16 -6 -17 -181 -15
l-187 3 -64 180 c-35 99 -89 251 -120 338 l-56 157 -601 -2 -601 -3 -120 -337
-119 -338 -189 0 c-103 0 -188 2 -188 4 0 2 223 588 496 1302 273 715 501
1311 506 1327 l10 27 205 -2 205 -3 499 -1310z m1768 423 c184 -491 337 -897
341 -901 4 -4 159 397 346 893 l339 900 268 0 267 0 0 -1330 0 -1330 -175 0
-175 0 -2 1161 -3 1160 -340 -905 -340 -906 -180 0 -181 0 -339 903 -340 904
-3 -1159 -2 -1158 -175 0 -175 0 0 1330 0 1330 268 0 267 0 334 -892z"/>
<path d="M1735 3803 c-131 -357 -240 -654 -243 -660 -3 -10 97 -13 482 -13
267 0 486 3 486 8 0 8 -479 1304 -484 1309 -1 2 -110 -288 -241 -644z"/>
</g>
</svg>
